<?xml version="1.0" standalone="no"?>
<!DOCTYPE svg PUBLIC "-//W3C//DTD SVG 20010904//EN"
 "http://www.w3.org/TR/2001/REC-SVG-20010904/DTD/svg10.dtd">
<svg version="1.0" xmlns="http://www.w3.org/2000/svg"
 width="400.000000pt" height="400.000000pt" viewBox="0 0 400.000000 400.000000"
 preserveAspectRatio="xMidYMid meet">
<metadata>
Created by potrace 1.14, written by Peter Selinger 2001-2017
</metadata>
<g transform="translate(0.000000,400.000000) scale(0.100000,-0.100000)"
fill="#000000" stroke="none">
<path d="M1830 3997 c-3 -3 -39 -8 -80 -11 -41 -3 -90 -10 -108 -15 -18 -5
-35 -10 -37 -10 -33 -3 -222 -52 -260 -67 -22 -9 -62 -25 -90 -36 -606 -243
-1057 -765 -1206 -1398 -24 -101 -29 -132 -36 -205 -10 -103 -10 -395 0 -505
8 -87 80 -394 97 -415 5 -6 11 -20 13 -31 2 -10 13 -40 25 -66 12 -26 22 -50
22 -53 0 -14 91 -187 135 -256 163 -255 363 -455 622 -622 54 -35 113 -69 131
-76 17 -7 32 -17 32 -22 0 -5 7 -9 16 -9 9 0 28 -7 42 -15 37 -20 220 -94 246
-99 11 -2 55 -14 96 -25 41 -12 75 -21 75 -20 0 1 18 -4 40 -9 163 -44 618
-42 795 3 30 8 66 16 80 19 235 49 524 189 750 365 87 67 256 230 300 290 14
18 33 41 43 49 9 9 17 22 17 29 0 6 6 16 13 20 13 9 97 129 97 140 0 4 6 14
14 22 21 23 96 179 146 301 39 97 74 212 87 285 2 17 11 55 19 85 27 103 37
373 22 569 -13 165 -85 447 -142 556 -9 17 -16 34 -16 38 0 8 -71 154 -94 192
-54 92 -119 189 -133 198 -7 4 -13 15 -13 22 0 8 -4 15 -8 15 -5 0 -22 19 -39
43 -73 100 -273 285 -403 372 -25 17 -46 33 -48 38 -2 4 -8 7 -13 7 -5 0 -32
15 -61 34 -138 87 -431 204 -578 229 -14 3 -44 10 -68 16 -23 7 -59 14 -80 16
-62 8 -457 18 -462 12z m425 -176 c33 -6 78 -13 100 -17 84 -12 239 -58 322
-95 24 -11 45 -19 49 -19 24 0 214 -106 312 -175 128 -90 310 -255 338 -308
22 -40 -3 -74 -109 -146 -74 -50 -216 -101 -323 -115 -27 -4 -65 -11 -84 -16
-19 -5 -53 -11 -75 -15 -94 -14 -171 -40 -179 -61 -3 -7 -2 -13 2 -12 11 3 82
-12 111 -24 14 -6 31 -12 36 -13 11 -3 136 -72 200 -111 35 -21 51 -24 132
-23 99 2 240 23 288 43 17 7 50 22 75 32 25 11 72 40 104 67 33 26 63 44 67
40 4 -5 16 -26 28 -48 21 -41 26 -71 15 -100 -7 -18 -102 -84 -150 -103 -53
-22 -153 -39 -243 -41 -116 -3 -119 -6 -68 -62 45 -50 76 -86 120 -141 73 -89
121 -100 267 -59 59 17 96 36 146 76 40 33 40 33 53 13 7 -11 15 -42 18 -68 5
-44 3 -49 -32 -83 -20 -20 -49 -38 -63 -42 -44 -9 -76 -16 -97 -20 -11 -2 -81
-6 -155 -9 -74 -2 -136 -8 -137 -13 -9 -31 183 -164 258 -178 10 -2 26 -8 36
-13 10 -6 59 -13 108 -17 50 -4 94 -9 98 -12 9 -5 4 -118 -7 -163 -18 -77 -76
-103 -233 -103 -62 -1 -113 -5 -113 -9 0 -32 181 -168 224 -168 7 0 23 -8 35
-17 21 -18 21 -19 5 -73 -9 -30 -20 -59 -24 -65 -4 -5 -11 -21 -15 -35 -6 -21
-25 -61 -109 -227 -6 -13 -14 -23 -18 -23 -5 0 -8 -6 -8 -13 0 -8 -8 -23 -17
-35 -10 -12 -31 -39 -46 -62 -17 -24 -36 -40 -48 -40 -20 0 -117 46 -179 85
-19 12 -45 25 -58 29 -25 8 -24 20 -6 -126 3 -26 9 -60 13 -75 4 -16 9 -57 10
-93 2 -59 -1 -70 -28 -107 -27 -38 -73 -64 -87 -51 -6 7 -22 108 -29 193 -5
60 -16 145 -29 220 -4 21 -44 159 -53 185 -3 8 -7 20 -8 25 -12 54 -120 273
-135 275 -9 0 -188 -177 -203 -202 -7 -13 -12 -34 -10 -48 9 -55 14 -370 7
-370 -5 0 -10 -12 -10 -27 -6 -116 -80 -304 -171 -432 -104 -147 -195 -217
-271 -209 l-32 3 65 80 c79 99 81 109 18 100 -306 -44 -605 -42 -763 5 -19 6
-51 13 -70 16 -19 3 -48 12 -65 19 -16 7 -64 25 -105 40 -104 37 -345 166
-380 205 -3 3 -23 18 -45 34 -107 78 -277 244 -325 316 -8 12 -20 28 -26 34
-29 31 -112 170 -154 261 -69 145 -129 345 -134 440 -1 11 -5 23 -10 27 -12 8
-14 411 -4 478 18 113 28 161 48 235 23 83 116 332 131 351 5 6 23 37 40 70
44 82 139 227 155 237 8 4 14 12 14 17 0 21 202 224 295 297 282 222 601 356
925 390 30 3 56 7 58 8 9 8 364 -4 417 -14z"/>
<path d="M2096 3428 c-9 -12 -16 -28 -16 -35 0 -7 -4 -13 -10 -13 -5 0 -10 -6
-10 -13 0 -7 -10 -26 -22 -42 -30 -39 -213 -221 -266 -263 -79 -64 -190 -142
-201 -142 -6 0 -11 -4 -11 -10 0 -5 -15 -17 -32 -26 -18 -9 -37 -23 -41 -30
-4 -8 -13 -14 -19 -14 -5 0 -23 -10 -38 -22 -15 -13 -45 -36 -66 -53 -53 -42
-163 -151 -204 -204 -19 -24 -45 -54 -57 -67 -13 -13 -23 -26 -23 -29 0 -16
-250 -258 -289 -282 l-45 -26 23 -18 c13 -11 29 -19 37 -19 20 0 34 -33 28
-66 -3 -16 -32 -83 -65 -149 -87 -175 -103 -199 -142 -214 -49 -19 -88 -2
-121 53 l-22 37 -19 -73 c-15 -54 -20 -106 -20 -198 0 -121 18 -240 37 -240 4
0 17 9 29 21 27 27 50 21 70 -18 9 -17 33 -54 54 -82 97 -127 224 -181 423
-181 l97 1 -26 22 c-14 12 -51 40 -81 61 -30 21 -64 53 -76 71 -57 83 10 228
138 296 59 31 200 34 270 5 25 -10 57 -20 73 -23 26 -4 27 -2 27 36 0 31 4 41
21 46 21 7 308 -3 321 -11 19 -12 15 20 -7 64 -31 62 -36 90 -20 122 11 22 90
100 101 100 2 0 23 14 47 31 l44 30 -29 31 c-15 16 -28 39 -28 49 0 22 52 74
94 94 57 27 200 77 286 100 121 33 312 35 401 5 58 -20 234 -107 319 -159 19
-11 63 -35 98 -53 35 -18 78 -41 95 -50 180 -97 332 -112 464 -48 34 16 35 17
12 24 -13 4 -37 9 -54 12 -53 10 -178 56 -235 87 -85 47 -157 103 -245 193
-109 112 -113 156 -10 131 11 -3 39 -10 62 -15 l43 -10 -21 29 c-23 33 -190
204 -231 237 -16 12 -56 40 -90 63 -35 23 -75 50 -89 59 -82 57 -260 116 -444
148 -52 9 -277 9 -335 -1 -25 -4 -61 -10 -80 -13 -19 -3 -45 -7 -58 -9 -24 -4
-30 -13 103 175 43 61 105 181 111 216 2 13 8 34 12 46 14 38 14 117 1 184 -7
35 -16 64 -20 64 -4 0 -15 -10 -23 -22z m-723 -1206 c-6 -17 -55 -83 -83 -113
-44 -46 -141 -96 -185 -95 -63 2 44 126 164 190 70 37 114 45 104 18z"/>
<path d="M3090 3310 c-30 -16 -56 -27 -59 -25 -2 2 -11 0 -20 -4 -9 -5 -83
-12 -166 -15 -145 -6 -247 -13 -310 -21 -91 -11 -126 -18 -131 -26 -3 -5 -10
-7 -15 -4 -5 4 -9 2 -9 -3 0 -6 -10 -12 -23 -16 -61 -15 -151 -133 -167 -218
-7 -34 -5 -37 19 -40 14 -2 37 0 51 3 14 4 77 10 140 13 117 6 259 27 340 50
25 8 47 13 50 13 11 -2 138 46 196 74 102 49 171 127 176 198 2 24 -1 45 -7
47 -5 1 -35 -11 -65 -26z"/>
<path d="M2290 2061 c-36 -9 -74 -22 -85 -28 -26 -15 -18 -18 115 -32 120 -14
190 -29 190 -42 0 -5 9 -9 19 -9 66 0 223 -111 313 -222 48 -59 210 -285 227
-317 6 -11 17 -25 23 -33 7 -7 32 -38 55 -69 24 -30 62 -72 85 -92 99 -86 114
-97 125 -97 6 0 20 -3 30 -7 10 -3 -4 18 -32 48 -83 91 -133 169 -121 188 3 4
33 2 68 -5 86 -18 238 -18 263 0 23 17 25 14 -120 141 -49 43 -99 88 -111 99
-11 12 -45 41 -75 66 -29 25 -63 54 -74 65 -62 59 -222 180 -300 227 -81 49
-216 104 -298 123 -87 19 -214 18 -297 -4z"/>
<path d="M2183 1900 c-13 -5 -23 -13 -23 -17 0 -4 25 -23 54 -42 59 -37 170
-138 203 -186 32 -46 63 -148 63 -207 0 -46 -22 -144 -45 -200 -6 -15 1 -13
36 8 65 37 83 48 89 54 3 3 28 23 57 43 104 75 186 189 172 238 -8 33 -86 121
-164 188 -39 32 -145 90 -204 109 -69 23 -195 29 -238 12z"/>
</g>
</svg>
